# Blender v2.79 (sub 0) OBJ File: 'Rock.blend'
# www.blender.org
mtllib Rock.mtl
o Rock
v 57.681450 110.370598 17.402126
v -36.470318 158.628296 10.209101
v -49.356293 125.001595 14.253500
v 50.588223 69.383057 16.110613
v -71.153435 125.479485 13.492229
v -69.811058 178.985809 11.485422
v -45.191116 104.167000 1.508734
v -21.881933 148.255127 3.967712
v -88.302422 104.034195 3.664848
v -87.940277 196.593170 1.695758
v 12.452674 67.590576 3.347710
v 31.384241 123.700203 13.167784
v -125.000000 65.163963 11.171432
v -67.814842 54.695290 11.057348
v -85.683556 25.005951 10.376826
v -125.000000 42.872223 13.213200
v -78.890396 16.238243 -0.123014
v -82.318459 78.348312 -1.220007
v 34.140995 15.247504 16.679131
v 55.756905 48.439835 13.243402
v 26.006239 58.423843 14.746612
v 23.786028 33.144386 16.168600
v 82.961983 195.556351 16.455826
v 66.512131 152.298508 3.157780
v 51.550789 218.605194 13.636507
v -22.787022 88.123718 11.016863
v -32.712044 63.097206 15.201766
v 125.000000 250.000000 13.358254
v 3.990112 172.369308 14.562249
v -6.657067 138.420746 13.844572
v -77.589478 213.464340 15.920305
v -48.890831 250.000000 11.280048
v -125.000000 -0.000001 13.358241
v -48.890800 -0.000000 11.280035
v 125.000000 -0.000001 13.358244
v 69.735565 -0.000001 15.364400
v -6.269658 -0.000001 13.305868
v 33.360088 -0.000000 2.974903
v 93.066956 -0.000000 11.359575
v 11.547672 213.940140 12.420061
v -37.558796 41.318535 2.966606
v -13.194744 50.404152 4.137716
v 84.381027 35.776543 11.630548
v 125.000000 114.630089 14.806402
v 125.000000 151.986328 6.910762
v 125.000000 65.163963 11.171432
v 125.000000 91.290344 7.416326
v 125.000000 207.837402 1.379252
v -125.000000 250.000000 13.358254
v -6.269658 250.000000 13.305879
v 69.735565 250.000000 15.364413
v 33.360088 250.000000 2.974917
v -125.000000 207.837402 1.379252
v -125.000000 151.986328 6.910762
v -125.000000 114.630089 14.806402
v -125.000000 91.290344 7.416326
v 125.000000 42.872223 13.213200
v 98.926163 34.706841 4.215499
v 53.673492 58.305931 8.983283
v -15.741680 182.113556 5.068194
v 42.188953 160.025970 12.898108
v -2.537491 218.629761 4.994933
v 82.112442 65.655548 8.091446
v 106.113907 118.373398 0.827676
v 103.296654 143.811310 12.155416
v -95.900398 96.543121 12.116461
v -50.974762 94.547058 8.427403
v -26.440563 109.065712 14.072728
v -79.758865 236.188690 16.191845
v 93.066956 250.000000 11.359586
v 104.322350 222.276367 10.613104
v 91.454651 233.154572 5.394818
vt 0.354119 0.634513
vt 0.302575 0.500006
vt 0.319236 0.416668
vt 0.412472 0.593021
vt 0.220756 0.715943
vt 0.215386 0.501918
vt 0.146790 0.416137
vt 0.148239 0.786373
vt 0.730726 0.441482
vt 0.625537 0.494801
vt 0.549811 0.270362
vt 0.702353 0.277532
vt 0.228741 0.218781
vt 0.000000 0.260656
vt 0.000000 0.171489
vt 0.157266 0.100024
vt 0.170726 0.313393
vt 0.723028 0.193759
vt 0.604025 0.233695
vt 0.595144 0.132578
vt 0.636564 0.060990
vt 0.489850 0.874519
vt 0.304437 1.000000
vt 0.189642 0.853857
vt 0.437033 0.728454
vt 0.369152 0.252389
vt 0.296101 0.378188
vt 0.408852 0.352495
vt 0.394238 0.436263
vt 0.473372 0.553683
vt 0.000000 0.000000
vt 0.184438 0.064953
vt 0.304437 0.000000
vt 0.474921 1.000000
vt 0.349765 0.165274
vt 0.633440 0.000000
vt 0.778942 0.000000
vt 0.837524 0.143106
vt 0.447221 0.201617
vt 0.474921 0.000000
vt 0.872268 0.000000
vt 0.895705 0.138827
vt 1.000000 0.000000
vt 1.000000 0.171489
vt 0.000000 1.000000
vt 0.180965 0.944755
vt 0.000000 0.831350
vt 0.000000 0.458520
vt 0.000000 0.365161
vt 0.116398 0.386173
vt 0.000000 0.607945
vt 0.714694 0.233224
vt 0.515960 0.689477
vt 0.668756 0.640104
vt 0.766049 0.609194
vt 0.546191 0.855761
vt 0.633440 1.000000
vt 0.706203 0.874421
vt 0.778942 1.000000
vt 0.831848 0.782226
vt 0.828450 0.262622
vt 1.000000 0.260656
vt 1.000000 0.831350
vt 1.000000 0.607945
vt 0.924456 0.473494
vt 1.000000 0.458520
vt 1.000000 0.365161
vt 0.913187 0.575245
vt 0.917289 0.889106
vt 1.000000 1.000000
vt 0.865819 0.932618
vt 0.872268 1.000000
vn 0.2282 0.0454 0.9726
vn 0.2185 -0.2122 0.9525
vn -0.0902 -0.0401 0.9951
vn -0.0106 -0.0102 0.9999
vn -0.1452 0.1811 0.9727
vn -0.1881 -0.1512 0.9704
vn 0.1265 -0.0335 0.9914
vn -0.1233 -0.2285 0.9657
vn 0.0634 0.0124 0.9979
vn 0.0039 -0.0082 1.0000
vn -0.0832 0.0562 0.9949
vn -0.0385 -0.2842 0.9580
vn 0.0117 -0.0207 0.9997
vn 0.0916 0.0285 0.9954
vn 0.0489 0.0103 0.9988
vn 0.2173 -0.2581 0.9414
vn 0.0342 0.1767 0.9837
vn 0.0835 0.2276 0.9702
vn -0.0287 0.4205 0.9068
vn -0.0734 0.0282 0.9969
vn -0.0036 -0.2569 0.9664
vn -0.2366 -0.0965 0.9668
vn 0.0952 -0.0218 0.9952
vn -0.0666 -0.2929 0.9538
vn -0.1344 0.0689 0.9885
vn 0.0409 -0.1412 0.9891
vn 0.0137 0.2183 0.9758
vn -0.0779 -0.0119 0.9969
vn -0.3876 0.0846 0.9179
vn -0.1263 0.0162 0.9919
vn 0.1318 0.0529 0.9899
vn 0.1371 0.0715 0.9880
vn -0.1175 0.2967 0.9477
vn -0.0578 -0.1081 0.9925
vn 0.0163 -0.1522 0.9882
vn -0.0915 -0.5054 0.8580
vn 0.1041 -0.0551 0.9930
vn 0.2428 0.1090 0.9639
vn 0.0012 -0.0131 0.9999
vn -0.0890 0.0269 0.9957
vn 0.0739 0.0851 0.9936
vn 0.0348 0.0497 0.9982
vn -0.1997 0.1066 0.9741
vn -0.1788 -0.0061 0.9839
vn -0.1577 -0.1002 0.9824
vn -0.0048 0.0518 0.9986
vn -0.1096 -0.1368 0.9845
vn 0.1488 0.0479 0.9877
vn 0.1261 -0.0887 0.9880
vn 0.2867 -0.0465 0.9569
vn 0.1480 0.0795 0.9858
vn 0.0672 0.0409 0.9969
vn -0.2008 0.0521 0.9782
vn 0.0606 -0.0062 0.9981
vn 0.0614 -0.0176 0.9980
vn -0.1552 0.0612 0.9860
vn -0.0410 0.1780 0.9832
vn 0.0057 0.0524 0.9986
vn 0.0530 -0.1256 0.9907
vn 0.1017 0.0172 0.9947
vn 0.1069 0.0251 0.9940
vn -0.1236 0.0373 0.9916
vn 0.3043 -0.0647 0.9504
vn -0.0202 -0.0397 0.9990
vn -0.0853 -0.0198 0.9962
vn -0.4370 -0.1640 0.8844
vn -0.2154 0.0706 0.9740
vn -0.0589 -0.0519 0.9969
vn 0.1212 -0.0418 0.9917
vn -0.0101 -0.1733 0.9848
vn 0.0291 -0.0224 0.9993
vn 0.0196 -0.1751 0.9844
usemtl Rock
s 1
f 2/1/1 3/2/2 7/3/3 8/4/4
f 2/1/1 6/5/5 5/6/6 3/2/2
f 9/7/7 7/3/3 3/2/2 5/6/6
f 10/8/8 9/7/7 5/6/6 6/5/5
f 1/9/9 12/10/10 11/11/11 4/12/12
f 14/13/13 13/14/14 16/15/15 15/16/16
f 14/13/13 18/17/17 13/14/14
f 20/18/18 21/19/19 22/20/20 19/21/21
f 62/22/22 32/23/23 31/24/24 60/25/25
f 18/17/17 14/13/13 27/26/26 67/27/27
f 7/3/3 67/27/27 27/26/26
f 27/26/26 26/28/28 7/3/3
f 26/28/28 68/29/29 7/3/3
f 12/10/10 30/30/30 26/28/28 11/11/11
f 16/15/15 33/31/31 15/16/16
f 17/32/32 15/16/16 33/31/31
f 33/31/31 34/33/33 17/32/32
f 32/23/23 62/22/22 50/34/34
f 34/33/33 41/35/35 17/32/32
f 14/13/13 15/16/16 17/32/32 41/35/35
f 27/26/26 14/13/13 41/35/35
f 38/36/36 36/37/37 19/21/21
f 20/18/18 19/21/21 36/37/37 43/38/38
f 42/39/39 27/26/26 41/35/35
f 34/33/33 37/40/40 42/39/39 41/35/35
f 11/11/11 26/28/28 27/26/26 42/39/39
f 19/21/21 22/20/20 37/40/40 38/36/36
f 22/20/20 21/19/19 11/11/11 42/39/39
f 37/40/40 22/20/20 42/39/39
f 39/41/41 58/42/42 43/38/38 36/37/37
f 35/43/43 57/44/44 58/42/42 39/41/41
f 49/45/45 69/46/46 32/23/23
f 31/24/24 53/47/47 10/8/8
f 55/48/48 56/49/49 66/50/50 9/7/7
f 53/47/47 54/51/51 10/8/8
f 10/8/8 54/51/51 55/48/48 9/7/7
f 9/7/7 66/50/50 18/17/17
f 20/18/18 59/52/52 11/11/11 21/19/19
f 11/11/11 59/52/52 4/12/12
f 29/53/53 30/30/30 12/10/10 61/54/54
f 8/4/4 30/30/30 29/53/53 60/25/25
f 31/24/24 10/8/8 60/25/25
f 24/55/55 61/54/54 12/10/10 1/9/9
f 8/4/4 60/25/25 2/1/1
f 60/25/25 29/53/53 40/56/56 62/22/22
f 62/22/22 40/56/56 50/34/34
f 6/5/5 2/1/1 60/25/25 10/8/8
f 52/57/57 25/58/58 51/59/59
f 50/34/34 40/56/56 25/58/58 52/57/57
f 29/53/53 61/54/54 25/58/58 40/56/56
f 24/55/55 23/60/60 25/58/58 61/54/54
f 59/52/52 63/61/61 4/12/12
f 43/38/38 63/61/61 59/52/52 20/18/18
f 58/42/42 63/61/61 43/38/38
f 46/62/62 63/61/61 58/42/42 57/44/44
f 48/63/63 23/60/60 45/64/64
f 1/9/9 4/12/12 63/61/61 64/65/65
f 44/66/66 64/65/65 47/67/67
f 47/67/67 64/65/65 63/61/61 46/62/62
f 23/60/60 24/55/55 65/68/68 45/64/64
f 9/7/7 18/17/17 67/27/27 7/3/3
f 13/14/14 18/17/17 66/50/50 56/49/49
f 44/66/66 45/64/64 65/68/68 64/65/65
f 65/68/68 24/55/55 1/9/9 64/65/65
f 8/4/4 7/3/3 68/29/29
f 32/23/23 69/46/46 31/24/24
f 49/45/45 53/47/47 31/24/24 69/46/46
f 68/29/29 26/28/28 30/30/30 8/4/4
f 71/69/69 23/60/60 48/63/63
f 48/63/63 28/70/70 71/69/69
f 25/58/58 72/71/71 70/72/72 51/59/59
f 70/72/72 72/71/71 71/69/69 28/70/70
f 72/71/71 25/58/58 23/60/60 71/69/69
